<svg width="35.000000" height="23.336792" viewBox="0 0 35 23.3368" fill="none" xmlns="http://www.w3.org/2000/svg" xmlns:xlink="http://www.w3.org/1999/xlink">
	<desc>
			Created with Pixso.
	</desc>
	<defs/>
	<path d="M34.87 13.14C34.61 10.19 34.17 9.62 34.01 9.4C33.63 8.9 33.03 8.58 32.4 8.23C32.36 8.22 32.33 8.19 32.31 8.16C32.28 8.12 32.27 8.08 32.26 8.04C32.25 8 32.26 7.96 32.27 7.92C32.28 7.88 32.3 7.85 32.33 7.82C32.45 7.7 32.54 7.56 32.6 7.4C32.65 7.24 32.68 7.07 32.66 6.91C32.63 6.61 32.5 6.33 32.28 6.14C32.05 5.94 31.77 5.83 31.47 5.83L30.33 5.83C30.28 5.83 30.23 5.83 30.19 5.84C30.15 5.82 30.12 5.81 30.08 5.8C29.41 4.38 28.49 2.43 26.57 1.48C23.74 0.07 18.51 0 17.49 0C16.47 0 11.25 0.07 8.41 1.48C6.5 2.43 5.58 4.38 4.91 5.8L4.9 5.81C4.87 5.82 4.83 5.83 4.8 5.84C4.75 5.83 4.7 5.83 4.66 5.83L3.52 5.83C3.22 5.83 2.93 5.94 2.71 6.14C2.49 6.33 2.35 6.61 2.32 6.91C2.31 7.07 2.33 7.24 2.39 7.4C2.45 7.55 2.54 7.7 2.66 7.82C2.69 7.85 2.71 7.88 2.72 7.92C2.73 7.96 2.73 8 2.73 8.04C2.72 8.08 2.71 8.12 2.68 8.15C2.66 8.18 2.63 8.21 2.59 8.23C1.96 8.57 1.35 8.9 0.98 9.4C0.82 9.62 0.38 10.19 0.12 13.13C-0.02 14.79 -0.05 16.51 0.07 17.61C0.31 19.91 0.76 21.3 0.78 21.36C0.85 21.57 0.97 21.75 1.14 21.89C1.31 22.03 1.52 22.12 1.74 22.15L1.74 22.16C1.74 22.47 1.86 22.77 2.08 22.99C2.3 23.21 2.6 23.33 2.91 23.33L6.99 23.33C7.3 23.33 7.6 23.21 7.82 22.99C8.03 22.77 8.16 22.47 8.16 22.16C8.79 22.16 9.22 22.05 9.68 21.93C10.35 21.75 11.04 21.63 11.73 21.58C13.95 21.36 16.16 21.29 17.49 21.29C18.79 21.29 21.1 21.36 23.33 21.58C24.03 21.63 24.71 21.75 25.38 21.93C25.83 22.05 26.25 22.15 26.83 22.16C26.83 22.47 26.95 22.77 27.17 22.99C27.39 23.21 27.69 23.33 28 23.33L32.08 23.33C32.39 23.33 32.69 23.21 32.91 22.99C33.12 22.77 33.25 22.47 33.25 22.16L33.25 22.16C33.47 22.13 33.67 22.04 33.84 21.9C34.02 21.76 34.14 21.57 34.21 21.36C34.23 21.31 34.68 19.92 34.92 17.62C35.04 16.51 35.02 14.8 34.87 13.14ZM7.02 6.8C7.6 5.56 8.27 4.16 9.45 3.57C11.17 2.71 14.73 2.33 17.49 2.33C20.26 2.33 23.81 2.71 25.53 3.57C26.72 4.16 27.38 5.56 27.97 6.8L28.04 6.96C28.09 7.05 28.1 7.15 28.1 7.25C28.09 7.35 28.06 7.44 28 7.53C27.95 7.61 27.88 7.68 27.79 7.72C27.7 7.77 27.6 7.79 27.5 7.79C25.08 7.73 19.97 7.52 17.49 7.52C15.01 7.52 9.91 7.73 7.48 7.8C7.38 7.8 7.28 7.78 7.19 7.73C7.11 7.68 7.03 7.61 6.98 7.53C6.92 7.45 6.89 7.35 6.88 7.25C6.88 7.15 6.9 7.05 6.94 6.96C6.96 6.91 6.99 6.85 7.02 6.8ZM7.89 12.61C6.63 12.76 5.37 12.83 4.1 12.83C3.33 12.83 2.53 12.61 2.39 11.92C2.29 11.46 2.3 11.2 2.35 10.94C2.4 10.72 2.47 10.55 2.83 10.5C3.78 10.35 4.31 10.53 5.86 10.99C6.89 11.29 7.64 11.7 8.06 12.02C8.27 12.17 8.16 12.59 7.89 12.61ZM24.03 18.59C23.07 18.7 21.15 18.66 17.51 18.66C13.88 18.66 11.96 18.7 11 18.59C10.01 18.48 8.75 17.54 9.61 16.71C10.18 16.16 11.52 15.75 13.31 15.51C15.09 15.28 15.84 15.16 17.51 15.16C19.17 15.16 19.85 15.24 21.71 15.51C23.57 15.79 24.97 16.21 25.41 16.71C26.19 17.6 25.02 18.47 24.03 18.59L24.03 18.59ZM32.6 11.92C32.45 12.61 31.65 12.83 30.88 12.83C29.59 12.83 28.31 12.76 27.03 12.61C26.8 12.59 26.7 12.19 26.93 12.02C27.34 11.69 28.09 11.29 29.12 10.99C30.67 10.53 31.57 10.35 32.34 10.5C32.52 10.54 32.62 10.74 32.63 10.87C32.69 11.22 32.67 11.58 32.6 11.92L32.6 11.92Z" fill="#262DD2" fill-opacity="1.000000" fill-rule="nonzero"/>
</svg>
