<svg width="35.000000" height="24.062500" viewBox="0 0 35 24.0625" fill="none" xmlns="http://www.w3.org/2000/svg" xmlns:xlink="http://www.w3.org/1999/xlink">
	<desc>
			Created with Pixso.
	</desc>
	<defs/>
	<path d="M35 5.67L35 3.82C35 1.71 33.28 0 31.17 0L3.82 0C1.71 0 0 1.71 0 3.82L0 5.67C0 5.76 0.03 5.85 0.1 5.91C0.16 5.97 0.25 6.01 0.34 6.01L34.65 6.01C34.74 6.01 34.83 5.97 34.89 5.91C34.96 5.85 35 5.76 35 5.67ZM0 8.54L0 20.23C0 22.34 1.71 24.06 3.82 24.06L31.17 24.06C33.28 24.06 35 22.34 35 20.23L35 8.54C35 8.45 34.96 8.36 34.89 8.3C34.83 8.23 34.74 8.2 34.65 8.2L0.34 8.2C0.25 8.2 0.16 8.23 0.1 8.3C0.03 8.36 0 8.45 0 8.54ZM8.75 17.5C8.75 18.1 8.26 18.59 7.65 18.59L6.56 18.59C5.95 18.59 5.46 18.1 5.46 17.5L5.46 16.4C5.46 15.8 5.95 15.31 6.56 15.31L7.65 15.31C8.26 15.31 8.75 15.8 8.75 16.4L8.75 17.5Z" fill="#D1A126" fill-opacity="1.000000" fill-rule="nonzero"/>
</svg>
