<svg width="35.000000" height="41.999146" viewBox="0 0 35 41.9991" fill="none" xmlns="http://www.w3.org/2000/svg" xmlns:xlink="http://www.w3.org/1999/xlink">
	<desc>
			Created with Pixso.
	</desc>
	<defs/>
	<path d="M33.24 10.49C33.24 6.16 34.8 4.05 34.81 4.03C34.94 3.86 35.01 3.65 34.99 3.44C34.98 3.23 34.89 3.03 34.74 2.88L32.11 0.25C31.98 0.12 31.81 0.03 31.62 0C31.43 -0.02 31.24 0.01 31.08 0.1C31.04 0.12 28.02 1.75 24.49 1.75C20.99 1.75 17.94 0.12 17.91 0.1C17.65 -0.04 17.34 -0.04 17.08 0.1C17.04 0.12 14.02 1.75 10.49 1.75C6.99 1.75 3.94 0.12 3.91 0.1C3.57 -0.08 3.15 -0.02 2.88 0.25L0.25 2.88C-0.06 3.19 -0.09 3.68 0.18 4.03C0.19 4.05 1.75 6.16 1.75 10.5C1.75 12.47 1.43 13.83 1.06 15.41C0.56 17.54 0 19.96 0 24.5C0 32.81 6.46 36.62 17.11 41.9C17.23 41.96 17.36 41.99 17.49 41.99C17.63 41.99 17.76 41.96 17.88 41.9C28.53 36.62 34.99 32.81 34.99 24.49C34.99 19.96 34.43 17.54 33.93 15.41C33.56 13.83 33.24 12.47 33.24 10.49ZM26.86 18.11L22.84 22.14L24.41 28.43C24.49 28.56 24.53 28.72 24.53 28.87C24.53 29.36 24.05 29.78 23.64 29.74L23.62 29.74C23.47 29.74 23.32 29.71 23.19 29.63L17.49 26.38L11.8 29.63C11.5 29.8 11.12 29.78 10.84 29.57C10.56 29.35 10.44 29 10.52 28.66L12.15 22.14L8.13 18.11C7.89 17.88 7.81 17.53 7.91 17.21C8.02 16.9 8.29 16.67 8.62 16.63L14.26 15.82L16.69 10.15C16.96 9.5 18.02 9.5 18.3 10.15L20.73 15.82L26.37 16.63C26.7 16.67 26.97 16.9 27.07 17.21C27.13 17.37 27.13 17.54 27.1 17.69C27.06 17.85 26.98 18 26.86 18.11Z" fill="#E95D30" fill-opacity="1.000000" fill-rule="nonzero"/>
</svg>
