<svg width="35.000000" height="35.000000" viewBox="0 0 35 35" fill="none" xmlns="http://www.w3.org/2000/svg" xmlns:xlink="http://www.w3.org/1999/xlink">
	<desc>
			Created with Pixso.
	</desc>
	<defs/>
	<path d="M34.05 15.22L34.05 15.22L19.77 0.94C19.17 0.33 18.36 0 17.5 0C16.63 0 15.83 0.33 15.22 0.94L0.95 15.21C0.94 15.21 0.94 15.22 0.93 15.22C-0.32 16.48 -0.32 18.52 0.94 19.77C1.51 20.35 2.27 20.68 3.08 20.71C3.11 20.72 3.14 20.72 3.17 20.72L3.74 20.72L3.74 31.22C3.74 33.3 5.44 35 7.52 35L13.1 35C13.67 35 14.13 34.54 14.13 33.97L14.13 25.73C14.13 24.78 14.9 24.01 15.85 24.01L19.14 24.01C20.09 24.01 20.86 24.78 20.86 25.73L20.86 33.97C20.86 34.54 21.32 35 21.89 35L27.48 35C29.55 35 31.25 33.3 31.25 31.22L31.25 20.72L31.77 20.72C32.63 20.72 33.44 20.38 34.05 19.77C35.31 18.52 35.31 16.47 34.05 15.22Z" fill="#623D9E" fill-opacity="1.000000" fill-rule="nonzero"/>
</svg>
