<svg width="35.000000" height="35.000000" viewBox="0 0 35 35" fill="none" xmlns="http://www.w3.org/2000/svg" xmlns:xlink="http://www.w3.org/1999/xlink">
	<desc>
			Created with Pixso.
	</desc>
	<defs/>
	<path d="M35 2.84C35 2.09 34.7 1.36 34.16 0.83C33.9 0.57 33.58 0.36 33.24 0.21C32.89 0.07 32.52 -0.01 32.15 0L2.84 0C2.09 0 1.36 0.29 0.83 0.83C0.57 1.09 0.36 1.41 0.21 1.75C0.07 2.1 -0.01 2.47 0 2.84L0 7.73C0 8.48 0.29 9.21 0.83 9.74C1.36 10.28 2.09 10.58 2.84 10.58L32.15 10.58C32.9 10.58 33.63 10.28 34.16 9.74C34.7 9.21 35 8.48 35 7.73L35 2.84ZM6.91 3.66C7.35 3.66 7.76 3.83 8.06 4.13C8.37 4.44 8.54 4.85 8.54 5.29C8.54 5.72 8.37 6.13 8.06 6.44C7.76 6.74 7.35 6.91 6.91 6.91C6.48 6.91 6.07 6.74 5.76 6.44C5.46 6.13 5.29 5.72 5.29 5.29C5.29 4.85 5.46 4.44 5.76 4.13C6.07 3.83 6.48 3.66 6.91 3.66ZM12.61 3.66C13.04 3.66 13.46 3.83 13.76 4.13C14.07 4.44 14.24 4.85 14.24 5.29C14.24 5.72 14.07 6.13 13.76 6.44C13.46 6.74 13.04 6.91 12.61 6.91C12.18 6.91 11.77 6.74 11.46 6.44C11.15 6.13 10.98 5.72 10.98 5.29C10.98 4.85 11.15 4.44 11.46 4.13C11.77 3.83 12.18 3.66 12.61 3.66ZM29.7 4.06L24.82 4.06C24.5 4.06 24.19 4.19 23.96 4.42C23.73 4.65 23.6 4.96 23.6 5.29C23.6 5.61 23.73 5.92 23.96 6.15C24.19 6.38 24.5 6.51 24.82 6.51L29.7 6.51C30.03 6.51 30.34 6.38 30.57 6.15C30.8 5.92 30.93 5.61 30.93 5.29C30.93 4.96 30.8 4.65 30.57 4.42C30.34 4.19 30.03 4.06 29.7 4.06ZM35 15.05C35 14.3 34.7 13.57 34.16 13.04C33.9 12.77 33.58 12.56 33.24 12.42C32.89 12.28 32.52 12.2 32.15 12.2L2.84 12.2C2.09 12.2 1.36 12.5 0.83 13.04C0.57 13.3 0.36 13.62 0.21 13.96C0.07 14.31 -0.01 14.68 0 15.05L0 19.94C0 20.69 0.29 21.42 0.83 21.95C1.36 22.49 2.09 22.79 2.84 22.79L32.15 22.79C32.9 22.79 33.63 22.49 34.16 21.95C34.7 21.42 35 20.69 35 19.94L35 15.05ZM6.91 15.87C7.35 15.87 7.76 16.04 8.06 16.34C8.37 16.65 8.54 17.06 8.54 17.5C8.54 17.93 8.37 18.34 8.06 18.65C7.76 18.95 7.35 19.12 6.91 19.12C6.48 19.12 6.07 18.95 5.76 18.65C5.46 18.34 5.29 17.93 5.29 17.5C5.29 17.06 5.46 16.65 5.76 16.34C6.07 16.04 6.48 15.87 6.91 15.87ZM12.61 15.87C13.04 15.87 13.46 16.04 13.76 16.34C14.07 16.65 14.24 17.06 14.24 17.5C14.24 17.93 14.07 18.34 13.76 18.65C13.46 18.95 13.04 19.12 12.61 19.12C12.18 19.12 11.77 18.95 11.46 18.65C11.15 18.34 10.98 17.93 10.98 17.5C10.98 17.06 11.15 16.65 11.46 16.34C11.77 16.04 12.18 15.87 12.61 15.87ZM29.7 16.27L24.82 16.27C24.5 16.27 24.19 16.4 23.96 16.63C23.73 16.86 23.6 17.17 23.6 17.5C23.6 17.82 23.73 18.13 23.96 18.36C24.19 18.59 24.5 18.72 24.82 18.72L29.7 18.72C30.03 18.72 30.34 18.59 30.57 18.36C30.8 18.13 30.93 17.82 30.93 17.5C30.93 17.17 30.8 16.86 30.57 16.63C30.34 16.4 30.03 16.27 29.7 16.27ZM35 27.26C35 26.51 34.7 25.78 34.16 25.25C33.9 24.98 33.58 24.77 33.24 24.63C32.89 24.49 32.52 24.41 32.15 24.41L2.84 24.41C2.09 24.41 1.36 24.71 0.83 25.25C0.57 25.51 0.36 25.83 0.21 26.17C0.07 26.52 -0.01 26.89 0 27.26L0 32.15C0 32.9 0.29 33.63 0.83 34.16C1.36 34.7 2.09 35 2.84 35L32.15 35C32.9 35 33.63 34.7 34.16 34.16C34.7 33.63 35 32.9 35 32.15L35 27.26ZM6.91 28.08C7.35 28.08 7.76 28.25 8.06 28.55C8.37 28.86 8.54 29.27 8.54 29.7C8.54 30.14 8.37 30.55 8.06 30.86C7.76 31.16 7.35 31.33 6.91 31.33C6.48 31.33 6.07 31.16 5.76 30.86C5.46 30.55 5.29 30.14 5.29 29.7C5.29 29.27 5.46 28.86 5.76 28.55C6.07 28.25 6.48 28.08 6.91 28.08ZM12.61 28.08C13.04 28.08 13.46 28.25 13.76 28.55C14.07 28.86 14.24 29.27 14.24 29.7C14.24 30.14 14.07 30.55 13.76 30.86C13.46 31.16 13.04 31.33 12.61 31.33C12.18 31.33 11.77 31.16 11.46 30.86C11.15 30.55 10.98 30.14 10.98 29.7C10.98 29.27 11.15 28.86 11.46 28.55C11.77 28.25 12.18 28.08 12.61 28.08ZM29.7 28.48L24.82 28.48C24.5 28.48 24.19 28.61 23.96 28.84C23.73 29.07 23.6 29.38 23.6 29.7C23.6 30.03 23.73 30.34 23.96 30.57C24.19 30.8 24.5 30.93 24.82 30.93L29.7 30.93C30.03 30.93 30.34 30.8 30.57 30.57C30.8 30.34 30.93 30.03 30.93 29.7C30.93 29.38 30.8 29.07 30.57 28.84C30.34 28.61 30.03 28.48 29.7 28.48Z" fill="#2AAA2F" fill-opacity="1.000000" fill-rule="evenodd"/>
</svg>
