<svg width="35.000000" height="29.166687" viewBox="0 0 35 29.1667" fill="none" xmlns="http://www.w3.org/2000/svg" xmlns:xlink="http://www.w3.org/1999/xlink">
	<desc>
			Created with Pixso.
	</desc>
	<defs/>
	<path d="M20.41 4.37L20.41 2.91L14.58 2.91L14.58 4.37L20.41 4.37ZM11.66 4.37L11.66 2.91C11.66 1.3 12.97 0 14.58 0L20.41 0C22.02 0 23.33 1.3 23.33 2.91L23.33 4.37L30.98 4.37C33.2 4.37 35 6.16 35 8.38L35 11.72L17.85 17.44C17.73 17.48 17.61 17.5 17.5 17.5C17.38 17.5 17.26 17.48 17.14 17.44L0 11.72L0 8.38C0 6.16 1.79 4.37 4.01 4.37L11.66 4.37ZM16.37 19.48C17.07 19.74 17.83 19.75 18.53 19.51L35 14.02L35 25.15C35 27.37 33.2 29.16 30.98 29.16L4.01 29.16C1.79 29.16 0 27.37 0 25.15L0 14.02L16.37 19.48Z" fill="#A03636" fill-opacity="1.000000" fill-rule="evenodd"/>
</svg>
