<svg width="30.000000" height="18.000000" viewBox="0 0 30 18" fill="none" xmlns="http://www.w3.org/2000/svg" xmlns:xlink="http://www.w3.org/1999/xlink">
	<desc>
			Created with Pixso.
	</desc>
	<defs/>
	<path id="Vector" d="M24.89 10.32C24.4 9.69 24.54 9.41 24.89 8.84C24.9 8.84 28.9 3.15 29.31 1.22L29.31 1.22C29.52 0.51 29.31 0 28.32 0L25.04 0C24.21 0 23.82 0.44 23.62 0.93C23.62 0.93 21.95 5.05 19.58 7.71C18.82 8.48 18.47 8.73 18.05 8.73C17.85 8.73 17.53 8.48 17.53 7.78L17.53 1.22C17.53 0.37 17.3 0 16.6 0L11.45 0C10.92 0 10.61 0.39 10.61 0.75C10.61 1.55 11.79 1.74 11.92 3.99L11.92 8.87C11.92 9.94 11.73 10.14 11.31 10.14C10.19 10.14 7.49 6.01 5.88 1.28C5.56 0.37 5.24 0 4.4 0L1.12 0C0.18 0 0 0.44 0 0.94C0 1.81 1.11 6.17 5.18 11.93C7.89 15.86 11.71 18 15.19 18C17.28 18 17.53 17.52 17.53 16.71C17.53 12.95 17.34 12.6 18.39 12.6C18.87 12.6 19.71 12.84 21.66 14.74C23.89 16.99 24.25 18 25.5 18L28.78 18C29.72 18 30.19 17.52 29.92 16.59C29.29 14.63 25.08 10.59 24.89 10.32Z" fill="#FFFFFF" fill-opacity="1.000000" fill-rule="nonzero"/>
</svg>
