<svg width="182.000000" height="52.426941" viewBox="0 0 182 52.4269" fill="none" xmlns="http://www.w3.org/2000/svg" xmlns:xlink="http://www.w3.org/1999/xlink">
	<desc>
			Created with Pixso.
	</desc>
	<defs/>
	<path d="M0 3L10.88 3L39.19 3M10.88 3L45 24.04L46 26L45 28.4L20.32 50.17" stroke="#39A0CA" stroke-opacity="1.000000" stroke-width="6.000000"/>
	<path d="M69.77 36L66.39 36L66.39 19.99L72.7 19.99C76.33 19.99 78.43 22.24 78.43 25.42C78.43 28.61 76.29 30.81 72.61 30.81L69.77 30.81L69.77 36ZM118.44 36L115.06 36L115.06 19.99L121.37 19.99C125.01 19.99 127.11 22.24 127.11 25.42C127.11 28.61 124.96 30.81 121.28 30.81L118.44 30.81L118.44 36ZM173.45 19.99L176.78 19.99L176.78 36L173.45 36L173.45 19.99ZM156.26 24L158.52 24L158.52 26.49L156.26 26.49L156.26 32.31C156.26 33.23 156.72 33.48 157.39 33.48C157.7 33.48 158.05 33.4 158.21 33.37L158.74 35.84C158.4 35.96 157.79 36.13 156.93 36.16C154.52 36.26 152.92 35.1 152.93 32.75L152.93 26.49L151.29 26.49L151.29 24L152.93 24L152.93 21.12L156.26 21.12L156.26 24ZM69.77 22.76L69.77 28.09L72.06 28.09C74 28.09 74.95 27 74.95 25.42C74.95 23.82 74 22.76 72.05 22.76L69.77 22.76ZM118.44 22.76L118.44 28.09L120.74 28.09C122.67 28.09 123.62 27 123.62 25.42C123.62 23.82 122.67 22.76 120.72 22.76L118.44 22.76ZM83.9 36L80.57 36L80.57 24L83.8 24L83.8 26.09L83.92 26.09C84.36 24.6 85.46 23.82 86.81 23.82C87.15 23.82 87.56 23.87 87.85 23.94L87.85 26.89C87.54 26.79 86.91 26.71 86.45 26.71C84.98 26.71 83.9 27.73 83.9 29.21L83.9 36ZM145.87 36L142.54 36L142.54 24L145.77 24L145.77 26.09L145.89 26.09C146.33 24.6 147.43 23.82 148.78 23.82C149.12 23.82 149.53 23.87 149.82 23.94L149.82 26.89C149.51 26.79 148.88 26.71 148.42 26.71C146.95 26.71 145.87 27.73 145.87 29.21L145.87 36ZM100.33 30.04C100.33 33.74 98.07 36.23 94.43 36.23C90.78 36.23 88.52 33.74 88.52 30.04C88.52 26.32 90.78 23.84 94.43 23.84C98.07 23.84 100.33 26.32 100.33 30.04ZM140.37 30.04C140.37 33.74 138.11 36.23 134.47 36.23C130.82 36.23 128.56 33.74 128.56 30.04C128.56 26.32 130.82 23.84 134.47 23.84C138.11 23.84 140.37 26.32 140.37 30.04ZM167.61 34.33C167.02 35.45 165.88 36.22 164.1 36.22C161.81 36.22 160.12 35.02 160.12 32.64C160.12 29.96 162.25 29.17 164.63 28.95C166.71 28.74 167.54 28.64 167.54 27.87L167.54 27.83C167.54 26.84 166.89 26.27 165.75 26.27C164.56 26.27 163.85 26.85 163.62 27.65L160.54 27.4C161 25.22 162.89 23.84 165.77 23.84C168.44 23.84 170.87 25.04 170.87 27.9L170.87 36L167.71 36L167.71 34.33L167.61 34.33ZM109.77 24L113.29 24L109.1 36L105.35 36L101.15 24L104.67 24L107.16 32.58L107.29 32.58L109.77 24ZM91.9 30.02C91.9 32.11 92.76 33.65 94.44 33.65C96.09 33.65 96.95 32.11 96.95 30.02C96.95 27.92 96.09 26.38 94.44 26.38C92.76 26.38 91.9 27.92 91.9 30.02ZM131.94 30.02C131.94 32.11 132.8 33.65 134.48 33.65C136.13 33.65 136.99 32.11 136.99 30.02C136.99 27.92 136.13 26.38 134.48 26.38C132.8 26.38 131.94 27.92 131.94 30.02ZM163.3 32.54C163.3 33.45 164.03 33.93 165.06 33.93C166.52 33.93 167.56 32.97 167.56 31.7L167.56 30.43C167.16 30.7 165.97 30.87 165.25 30.97C164.08 31.13 163.3 31.6 163.3 32.54Z" fill="#FFFFFF" fill-opacity="1.000000" fill-rule="evenodd"/>
</svg>
