<svg width="143" height="60" viewBox="0 0 143 60" fill="none" xmlns="http://www.w3.org/2000/svg">
<path d="M69.9772 8.25879C71.1942 8.25879 72.2477 8.46163 73.1376 8.86733C74.0406 9.27302 74.7342 9.84884 75.2184 10.5947C75.7027 11.3407 75.9448 12.224 75.9448 13.2448C75.9448 14.2525 75.7027 15.1359 75.2184 15.8949C74.7342 16.6408 74.0406 17.2167 73.1376 17.6224C72.2477 18.015 71.1942 18.2113 69.9772 18.2113H67.2093V21.9999H64.0292V8.25879H69.9772ZM69.8005 15.6201C70.7558 15.6201 71.4822 15.4172 71.9795 15.0115C72.4768 14.5928 72.7254 14.0039 72.7254 13.2448C72.7254 12.4727 72.4768 11.8838 71.9795 11.4781C71.4822 11.0593 70.7558 10.8499 69.8005 10.8499H67.2093V15.6201H69.8005ZM80.9241 12.8326C81.2905 12.3222 81.7813 11.9361 82.3964 11.6744C83.0245 11.4127 83.7443 11.2818 84.5557 11.2818V14.1085C84.2154 14.0824 83.9864 14.0693 83.8686 14.0693C82.9918 14.0693 82.3048 14.3179 81.8075 14.8152C81.3102 15.2994 81.0615 16.0324 81.0615 17.0139V21.9999H77.9992V11.4388H80.9241V12.8326ZM91.306 22.1569C90.1936 22.1569 89.1925 21.9279 88.3026 21.4699C87.4258 20.9988 86.7387 20.351 86.2414 19.5265C85.7441 18.702 85.4955 17.7663 85.4955 16.7194C85.4955 15.6724 85.7441 14.7367 86.2414 13.9122C86.7387 13.0878 87.4258 12.4465 88.3026 11.9885C89.1925 11.5174 90.1936 11.2818 91.306 11.2818C92.4184 11.2818 93.413 11.5174 94.2898 11.9885C95.1666 12.4465 95.8537 13.0878 96.351 13.9122C96.8483 14.7367 97.0969 15.6724 97.0969 16.7194C97.0969 17.7663 96.8483 18.702 96.351 19.5265C95.8537 20.351 95.1666 20.9988 94.2898 21.4699C93.413 21.9279 92.4184 22.1569 91.306 22.1569ZM91.306 19.6443C92.0912 19.6443 92.7325 19.3825 93.2298 18.8591C93.7402 18.3225 93.9954 17.6093 93.9954 16.7194C93.9954 15.8295 93.7402 15.1228 93.2298 14.5993C92.7325 14.0627 92.0912 13.7945 91.306 13.7945C90.5208 13.7945 89.873 14.0627 89.3626 14.5993C88.8523 15.1228 88.5971 15.8295 88.5971 16.7194C88.5971 17.6093 88.8523 18.3225 89.3626 18.8591C89.873 19.3825 90.5208 19.6443 91.306 19.6443ZM109.339 11.4388L104.883 21.9999H101.722L97.2859 11.4388H100.446L103.371 18.6235L106.394 11.4388H109.339Z" fill="white"/>
<path d="M0 3H12.7805M12.7805 3H46.0098M12.7805 3L52.8261 27.0923L54 29.3262L52.8261 32.0769L23.8569 57" stroke="#00C16E" stroke-width="6" stroke-linejoin="round"/>
<path d="M63.828 45L66.0572 33.8538H67.347L70.6908 42.2931L70.0062 42.2772L76.5505 33.8538H77.9199L75.6907 45H74.1621L75.9295 36.2105L76.3276 36.2423L70.5157 43.6465H69.7832L66.7738 36.2105L67.1082 36.2582L65.3566 45H63.828ZM82.7777 45.0955C81.9709 45.0955 81.2703 44.9469 80.6759 44.6497C80.092 44.3418 79.6356 43.9172 79.3065 43.3758C78.9774 42.8238 78.8129 42.1816 78.8129 41.4492C78.8129 40.4938 79.0252 39.6445 79.4498 38.9015C79.8744 38.1478 80.4582 37.5586 81.2013 37.134C81.955 36.6988 82.8096 36.4812 83.7649 36.4812C84.5611 36.4812 85.2564 36.6298 85.8509 36.927C86.4453 37.2242 86.9018 37.6435 87.2202 38.1849C87.5493 38.7263 87.7139 39.3685 87.7139 40.1116C87.7139 41.067 87.5016 41.9215 87.0769 42.6752C86.6523 43.4183 86.0685 44.0075 85.3254 44.4427C84.5929 44.8779 83.7437 45.0955 82.7777 45.0955ZM82.8732 43.758C83.5102 43.758 84.0781 43.6041 84.577 43.2962C85.0759 42.9884 85.4634 42.5691 85.7394 42.0383C86.026 41.4969 86.1693 40.8812 86.1693 40.1912C86.1693 39.4482 85.9517 38.8696 85.5165 38.4556C85.0812 38.031 84.4602 37.8187 83.6535 37.8187C83.0272 37.8187 82.4646 37.9726 81.9656 38.2805C81.4667 38.5777 81.0739 38.997 80.7873 39.5384C80.5007 40.0692 80.3574 40.6848 80.3574 41.3855C80.3574 42.1179 80.575 42.6965 81.0102 43.1211C81.4455 43.5457 82.0665 43.758 82.8732 43.758ZM92.6463 45.0955C91.9351 45.0955 91.2981 44.9522 90.7355 44.6656C90.1729 44.3684 89.7271 43.9491 89.398 43.4077C89.0795 42.8663 88.9203 42.2135 88.9203 41.4492C88.9203 40.7273 89.0371 40.0638 89.2706 39.4588C89.5147 38.8537 89.8491 38.3282 90.2737 37.8824C90.709 37.4365 91.2185 37.0915 91.8024 36.8474C92.3862 36.6032 93.0178 36.4812 93.6972 36.4812C94.4297 36.4812 95.0507 36.6085 95.5602 36.8633C96.0697 37.1181 96.4625 37.4949 96.7385 37.9938C97.0145 38.4822 97.1525 39.0819 97.1525 39.7932C97.1525 40.5787 97.0517 41.2952 96.85 41.9428C96.6483 42.5903 96.3457 43.1529 95.9424 43.6306C95.5496 44.0977 95.0772 44.4586 94.5252 44.7134C93.9732 44.9682 93.3469 45.0955 92.6463 45.0955ZM92.9807 43.758C93.6176 43.758 94.1855 43.6041 94.6844 43.2962C95.1834 42.9884 95.5708 42.5691 95.8468 42.0383C96.1334 41.4969 96.2767 40.8812 96.2767 40.1912C96.2767 39.4482 96.0591 38.8696 95.6239 38.4556C95.1887 38.031 94.5677 37.8187 93.7609 37.8187C93.1346 37.8187 92.572 37.9726 92.0731 38.2805C91.5741 38.5777 91.1814 38.997 90.8947 39.5384C90.6081 40.0692 90.4648 40.6848 90.4648 41.3855C90.4648 42.1179 90.6824 42.6965 91.1177 43.1211C91.5529 43.5457 92.1739 43.758 92.9807 43.758ZM95.4169 45L95.8627 42.8185L96.3564 40.86L96.5793 38.8537L97.7098 33.1851H99.2384L96.8818 45H95.4169ZM103.819 45.0955C102.991 45.0955 102.274 44.9469 101.669 44.6497C101.064 44.3418 100.597 43.9172 100.268 43.3758C99.9386 42.8238 99.7741 42.1763 99.7741 41.4332C99.7741 40.4778 99.9811 39.6286 100.395 38.8855C100.809 38.1425 101.372 37.5586 102.083 37.134C102.805 36.6988 103.622 36.4812 104.535 36.4812C105.299 36.4812 105.963 36.6298 106.525 36.927C107.088 37.2136 107.523 37.6276 107.831 38.169C108.15 38.7104 108.309 39.3632 108.309 40.1275C108.309 40.3186 108.298 40.515 108.277 40.7167C108.256 40.9078 108.229 41.0882 108.197 41.2581H100.889L101.08 40.1435H107.465L106.844 40.5256C106.939 39.9312 106.897 39.4322 106.717 39.0288C106.536 38.6148 106.249 38.3017 105.857 38.0894C105.475 37.8665 105.013 37.755 104.471 37.755C103.834 37.755 103.272 37.9089 102.784 38.2168C102.306 38.514 101.934 38.9333 101.669 39.4747C101.404 40.0055 101.271 40.6318 101.271 41.3536C101.271 42.1179 101.488 42.7124 101.924 43.137C102.37 43.551 103.044 43.758 103.946 43.758C104.477 43.758 104.97 43.6731 105.427 43.5032C105.883 43.3228 106.26 43.0839 106.557 42.7867L107.21 43.8854C106.807 44.2782 106.303 44.5807 105.697 44.793C105.092 44.9947 104.466 45.0955 103.819 45.0955ZM109.524 45L111.196 36.5608H112.661L112.183 39.0129L112.024 38.4078C112.417 37.6966 112.916 37.1977 113.521 36.9111C114.126 36.6245 114.874 36.4812 115.766 36.4812L115.479 37.962C115.416 37.9514 115.352 37.9461 115.288 37.9461C115.225 37.9461 115.156 37.9461 115.081 37.9461C114.243 37.9461 113.547 38.1743 112.995 38.6308C112.454 39.0872 112.088 39.8038 111.897 40.7804L111.053 45H109.524ZM119.579 45.0955C118.867 45.0955 118.231 44.9522 117.668 44.6656C117.105 44.3684 116.659 43.9491 116.33 43.4077C116.012 42.8663 115.853 42.2135 115.853 41.4492C115.853 40.7273 115.969 40.0638 116.203 39.4588C116.447 38.8537 116.782 38.3282 117.206 37.8824C117.641 37.4365 118.151 37.0915 118.735 36.8474C119.319 36.6032 119.95 36.4812 120.63 36.4812C121.362 36.4812 121.983 36.6085 122.493 36.8633C123.002 37.1181 123.395 37.4949 123.671 37.9938C123.947 38.4822 124.085 39.0819 124.085 39.7932C124.085 40.8335 123.904 41.757 123.544 42.5638C123.183 43.3599 122.662 43.9809 121.983 44.4268C121.314 44.8726 120.513 45.0955 119.579 45.0955ZM119.913 43.758C120.55 43.758 121.118 43.6041 121.617 43.2962C122.116 42.9884 122.503 42.5691 122.779 42.0383C123.066 41.4969 123.209 40.8812 123.209 40.1912C123.209 39.4482 122.992 38.8696 122.556 38.4556C122.121 38.031 121.5 37.8187 120.693 37.8187C120.067 37.8187 119.504 37.9726 119.005 38.2805C118.507 38.5777 118.114 38.997 117.827 39.5384C117.541 40.0692 117.397 40.6848 117.397 41.3855C117.397 42.1179 117.615 42.6965 118.05 43.1211C118.485 43.5457 119.106 43.758 119.913 43.758ZM122.349 45L122.795 42.8185L123.305 40.86L123.512 38.8537L123.958 36.5608H125.486L123.814 45H122.349ZM129.62 45.0955C129.111 45.0955 128.67 44.9841 128.299 44.7612C127.938 44.5382 127.678 44.2198 127.519 43.8058C127.37 43.3918 127.349 42.9035 127.455 42.3408L128.983 34.7137H130.512L128.983 42.309C128.909 42.7655 128.952 43.1317 129.111 43.4077C129.281 43.6731 129.594 43.8058 130.05 43.8058C130.263 43.8058 130.475 43.7739 130.687 43.7102C130.9 43.6359 131.091 43.5351 131.26 43.4077L131.579 44.5701C131.292 44.7718 130.974 44.9098 130.624 44.9841C130.284 45.0584 129.949 45.0955 129.62 45.0955ZM126.929 37.8187L127.168 36.5608H132.566L132.311 37.8187H126.929ZM137.064 45.0955C136.236 45.0955 135.52 44.9469 134.915 44.6497C134.31 44.3418 133.842 43.9172 133.513 43.3758C133.184 42.8238 133.02 42.1763 133.02 41.4332C133.02 40.4778 133.227 39.6286 133.641 38.8855C134.055 38.1425 134.617 37.5586 135.329 37.134C136.05 36.6988 136.868 36.4812 137.781 36.4812C138.545 36.4812 139.209 36.6298 139.771 36.927C140.334 37.2136 140.769 37.6276 141.077 38.169C141.395 38.7104 141.555 39.3632 141.555 40.1275C141.555 40.3186 141.544 40.515 141.523 40.7167C141.501 40.9078 141.475 41.0882 141.443 41.2581H134.134L134.325 40.1435H140.711L140.09 40.5256C140.185 39.9312 140.143 39.4322 139.962 39.0288C139.782 38.6148 139.495 38.3017 139.102 38.0894C138.72 37.8665 138.258 37.755 137.717 37.755C137.08 37.755 136.518 37.9089 136.029 38.2168C135.552 38.514 135.18 38.9333 134.915 39.4747C134.649 40.0055 134.517 40.6318 134.517 41.3536C134.517 42.1179 134.734 42.7124 135.169 43.137C135.615 43.551 136.289 43.758 137.192 43.758C137.722 43.758 138.216 43.6731 138.672 43.5032C139.129 43.3228 139.506 43.0839 139.803 42.7867L140.456 43.8854C140.052 44.2782 139.548 44.5807 138.943 44.793C138.338 44.9947 137.712 45.0955 137.064 45.0955Z" fill="white"/>
</svg>
