<svg width="125" height="60" viewBox="0 0 125 60" fill="none" xmlns="http://www.w3.org/2000/svg">
<path d="M69.9772 8.25884C71.1942 8.25884 72.2477 8.46168 73.1376 8.86738C74.0406 9.27307 74.7342 9.84889 75.2184 10.5948C75.7027 11.3408 75.9448 12.2241 75.9448 13.2449C75.9448 14.2526 75.7027 15.136 75.2184 15.895C74.7342 16.6409 74.0406 17.2168 73.1376 17.6225C72.2477 18.0151 71.1942 18.2114 69.9772 18.2114H67.2093V22H64.0292V8.25884H69.9772ZM69.8005 15.6202C70.7558 15.6202 71.4822 15.4173 71.9795 15.0116C72.4768 14.5929 72.7254 14.004 72.7254 13.2449C72.7254 12.4728 72.4768 11.8839 71.9795 11.4782C71.4822 11.0594 70.7558 10.85 69.8005 10.85H67.2093V15.6202H69.8005ZM80.9241 12.8327C81.2905 12.3223 81.7813 11.9362 82.3964 11.6745C83.0245 11.4128 83.7443 11.2819 84.5557 11.2819V14.1086C84.2154 14.0825 83.9864 14.0694 83.8686 14.0694C82.9918 14.0694 82.3048 14.318 81.8075 14.8153C81.3102 15.2995 81.0615 16.0324 81.0615 17.0139V22H77.9992V11.4389H80.9241V12.8327ZM91.306 22.157C90.1936 22.157 89.1925 21.928 88.3026 21.47C87.4258 20.9989 86.7387 20.3511 86.2414 19.5266C85.7441 18.7021 85.4955 17.7664 85.4955 16.7195C85.4955 15.6725 85.7441 14.7368 86.2414 13.9123C86.7387 13.0879 87.4258 12.4466 88.3026 11.9886C89.1925 11.5175 90.1936 11.2819 91.306 11.2819C92.4184 11.2819 93.413 11.5175 94.2898 11.9886C95.1666 12.4466 95.8537 13.0879 96.351 13.9123C96.8483 14.7368 97.0969 15.6725 97.0969 16.7195C97.0969 17.7664 96.8483 18.7021 96.351 19.5266C95.8537 20.3511 95.1666 20.9989 94.2898 21.47C93.413 21.928 92.4184 22.157 91.306 22.157ZM91.306 19.6444C92.0912 19.6444 92.7325 19.3826 93.2298 18.8592C93.7402 18.3226 93.9954 17.6094 93.9954 16.7195C93.9954 15.8296 93.7402 15.1229 93.2298 14.5994C92.7325 14.0628 92.0912 13.7946 91.306 13.7946C90.5208 13.7946 89.873 14.0628 89.3626 14.5994C88.8523 15.1229 88.5971 15.8296 88.5971 16.7195C88.5971 17.6094 88.8523 18.3226 89.3626 18.8592C89.873 19.3826 90.5208 19.6444 91.306 19.6444ZM109.339 11.4389L104.883 22H101.722L97.2859 11.4389H100.446L103.371 18.6236L106.394 11.4389H109.339ZM69.9772 32.2588C71.1942 32.2588 72.2477 32.4617 73.1376 32.8674C74.0406 33.2731 74.7342 33.8489 75.2184 34.5948C75.7027 35.3408 75.9448 36.2241 75.9448 37.2449C75.9448 38.2526 75.7027 39.136 75.2184 39.895C74.7342 40.6409 74.0406 41.2168 73.1376 41.6225C72.2477 42.0151 71.1942 42.2114 69.9772 42.2114H67.2093V46H64.0292V32.2588H69.9772ZM69.8005 39.6202C70.7558 39.6202 71.4822 39.4173 71.9795 39.0116C72.4768 38.5929 72.7254 38.004 72.7254 37.2449C72.7254 36.4728 72.4768 35.8839 71.9795 35.4782C71.4822 35.0594 70.7558 34.85 69.8005 34.85H67.2093V39.6202H69.8005ZM83.0054 46.157C81.893 46.157 80.8918 45.928 80.0019 45.47C79.1251 44.9989 78.4381 44.3511 77.9408 43.5266C77.4435 42.7021 77.1948 41.7664 77.1948 40.7195C77.1948 39.6725 77.4435 38.7368 77.9408 37.9123C78.4381 37.0879 79.1251 36.4466 80.0019 35.9886C80.8918 35.5175 81.893 35.2819 83.0054 35.2819C84.1177 35.2819 85.1123 35.5175 85.9892 35.9886C86.866 36.4466 87.553 37.0879 88.0503 37.9123C88.5476 38.7368 88.7963 39.6725 88.7963 40.7195C88.7963 41.7664 88.5476 42.7021 88.0503 43.5266C87.553 44.3511 86.866 44.9989 85.9892 45.47C85.1123 45.928 84.1177 46.157 83.0054 46.157ZM83.0054 43.6444C83.7906 43.6444 84.4318 43.3826 84.9291 42.8592C85.4395 42.3226 85.6947 41.6094 85.6947 40.7195C85.6947 39.8296 85.4395 39.1229 84.9291 38.5994C84.4318 38.0628 83.7906 37.7946 83.0054 37.7946C82.2201 37.7946 81.5723 38.0628 81.062 38.5994C80.5516 39.1229 80.2964 39.8296 80.2964 40.7195C80.2964 41.6094 80.5516 42.3226 81.062 42.8592C81.5723 43.3826 82.2201 43.6444 83.0054 43.6444ZM93.7681 36.8327C94.1345 36.3223 94.6253 35.9362 95.2404 35.6745C95.8685 35.4128 96.5883 35.2819 97.3997 35.2819V38.1086C97.0594 38.0825 96.8304 38.0694 96.7126 38.0694C95.8358 38.0694 95.1488 38.318 94.6515 38.8153C94.1542 39.2995 93.9055 40.0324 93.9055 41.0139V46H90.8432V35.4389H93.7681V36.8327ZM106.396 45.4896C106.095 45.7121 105.722 45.8822 105.278 46C104.846 46.1047 104.388 46.157 103.903 46.157C102.647 46.157 101.672 45.8364 100.979 45.1952C100.298 44.5539 99.9577 43.6117 99.9577 42.3684V38.0301H98.3284V35.6745H99.9577V33.1029H103.02V35.6745H105.651V38.0301H103.02V42.3291C103.02 42.7741 103.131 43.1209 103.354 43.3695C103.589 43.6051 103.917 43.7229 104.335 43.7229C104.819 43.7229 105.232 43.592 105.572 43.3303L106.396 45.4896ZM112.375 35.2819C114.011 35.2819 115.267 35.6745 116.144 36.4597C117.021 37.2318 117.459 38.4031 117.459 39.9735V46H114.593V44.6848C114.018 45.6663 112.945 46.157 111.374 46.157C110.563 46.157 109.856 46.0196 109.254 45.7448C108.665 45.47 108.214 45.0905 107.9 44.6063C107.585 44.122 107.428 43.5724 107.428 42.9573C107.428 41.9758 107.795 41.2037 108.528 40.6409C109.274 40.0782 110.419 39.7968 111.963 39.7968H114.397C114.397 39.1294 114.194 38.619 113.789 38.2657C113.383 37.8993 112.774 37.716 111.963 37.716C111.4 37.716 110.844 37.8077 110.294 37.9909C109.758 38.161 109.3 38.3966 108.92 38.6976L107.821 36.5579C108.397 36.1522 109.084 35.8381 109.882 35.6156C110.694 35.3931 111.525 35.2819 112.375 35.2819ZM112.14 44.0959C112.663 44.0959 113.128 43.9781 113.533 43.7425C113.939 43.4939 114.227 43.134 114.397 42.6629V41.5832H112.297C111.04 41.5832 110.412 41.9954 110.412 42.8199C110.412 43.2125 110.563 43.5266 110.864 43.7622C111.178 43.9846 111.603 44.0959 112.14 44.0959ZM120.231 31.4344H123.293V46H120.231V31.4344Z" fill="white"/>
<path d="M0 3H12.7805M12.7805 3H46.0098M12.7805 3L52.8261 27.0923L54 29.3262L52.8261 32.0769L23.8569 57" stroke="#00C16E" stroke-width="6" stroke-linejoin="round"/>
</svg>
