<svg width="152" height="60" viewBox="0 0 152 60" fill="none" xmlns="http://www.w3.org/2000/svg">
<path d="M63.6293 22V8.25884H69.5773C70.8074 8.25884 71.8675 8.46168 72.7574 8.86738C73.6473 9.25998 74.3343 9.82926 74.8185 10.5752C75.3028 11.3212 75.5449 12.2111 75.5449 13.2449C75.5449 14.2657 75.3028 15.149 74.8185 15.895C74.3343 16.6409 73.6473 17.2168 72.7574 17.6225C71.8675 18.0151 70.8074 18.2114 69.5773 18.2114H65.396L66.8094 16.7784V22H63.6293ZM66.8094 17.1317L65.396 15.6202H69.4006C70.3821 15.6202 71.115 15.4108 71.5992 14.992C72.0834 14.5732 72.3255 13.9909 72.3255 13.2449C72.3255 12.4859 72.0834 11.897 71.5992 11.4782C71.115 11.0594 70.3821 10.85 69.4006 10.85H65.396L66.8094 9.3385V17.1317ZM77.5801 22V11.4389H80.505V14.4227L80.0928 13.559C80.4069 12.8131 80.9107 12.2503 81.6043 11.8708C82.2979 11.4782 83.142 11.2819 84.1366 11.2819V14.1086C84.0057 14.0956 83.888 14.089 83.7833 14.089C83.6786 14.0759 83.5673 14.0694 83.4496 14.0694C82.612 14.0694 81.9315 14.3115 81.408 14.7957C80.8976 15.2668 80.6424 16.0062 80.6424 17.0139V22H77.5801ZM90.9061 22.157C89.7807 22.157 88.7795 21.9215 87.9027 21.4504C87.039 20.9792 86.3519 20.338 85.8415 19.5266C85.3442 18.7021 85.0956 17.7664 85.0956 16.7195C85.0956 15.6594 85.3442 14.7237 85.8415 13.9123C86.3519 13.0879 87.039 12.4466 87.9027 11.9886C88.7795 11.5175 89.7807 11.2819 90.9061 11.2819C92.0185 11.2819 93.0131 11.5175 93.8899 11.9886C94.7667 12.4466 95.4538 13.0813 95.9511 13.8927C96.4484 14.7041 96.697 15.6463 96.697 16.7195C96.697 17.7664 96.4484 18.7021 95.9511 19.5266C95.4538 20.338 94.7667 20.9792 93.8899 21.4504C93.0131 21.9215 92.0185 22.157 90.9061 22.157ZM90.9061 19.6444C91.4165 19.6444 91.8746 19.5266 92.2802 19.291C92.6859 19.0555 93.0066 18.7218 93.2421 18.2899C93.4777 17.8449 93.5955 17.3215 93.5955 16.7195C93.5955 16.1044 93.4777 15.5809 93.2421 15.149C93.0066 14.7172 92.6859 14.3835 92.2802 14.1479C91.8746 13.9123 91.4165 13.7946 90.9061 13.7946C90.3957 13.7946 89.9377 13.9123 89.532 14.1479C89.1263 14.3835 88.7991 14.7172 88.5505 15.149C88.3149 15.5809 88.1972 16.1044 88.1972 16.7195C88.1972 17.3215 88.3149 17.8449 88.5505 18.2899C88.7991 18.7218 89.1263 19.0555 89.532 19.291C89.9377 19.5266 90.3957 19.6444 90.9061 19.6444ZM101.322 22L96.886 11.4389H100.046L103.737 20.5277H102.167L105.994 11.4389H108.939L104.483 22H101.322Z" fill="white"/>
<path d="M0 3H12.7805M12.7805 3H46.0098M12.7805 3L52.8261 27.0923L54 29.3262L52.8261 32.0769L23.8569 57" stroke="#00C16E" stroke-width="6" stroke-linejoin="round"/>
<path d="M70.0877 46L65.4746 33.7115H65.396C65.4222 33.9732 65.4418 34.3069 65.4549 34.7126C65.4811 35.1183 65.5007 35.5633 65.5138 36.0475C65.5269 36.5186 65.5334 37.0028 65.5334 37.5001V46H63.9041V31.984H66.515L70.8336 43.4677H70.9121L75.3093 31.984H77.9005V46H76.1534V37.3823C76.1534 36.9243 76.1599 36.4728 76.173 36.0278C76.1861 35.5698 76.2057 35.1445 76.2319 34.7519C76.2581 34.3462 76.2777 34.0059 76.2908 33.7311H76.2123L71.5403 46H70.0877ZM90.6253 40.7195C90.6253 41.5963 90.5075 42.375 90.272 43.0555C90.0495 43.7229 89.7223 44.2922 89.2905 44.7633C88.8717 45.2344 88.3548 45.5943 87.7397 45.843C87.1377 46.0785 86.4637 46.1963 85.7178 46.1963C85.0242 46.1963 84.3829 46.0785 83.794 45.843C83.2051 45.5943 82.6947 45.2344 82.2628 44.7633C81.831 44.2922 81.4907 43.7229 81.2421 43.0555C81.0065 42.375 80.8887 41.5963 80.8887 40.7195C80.8887 39.5547 81.085 38.5732 81.4776 37.7749C81.8702 36.9636 82.433 36.3485 83.1658 35.9297C83.8987 35.4978 84.769 35.2819 85.7767 35.2819C86.732 35.2819 87.5696 35.4978 88.2893 35.9297C89.0222 36.3485 89.5915 36.9636 89.9972 37.7749C90.4159 38.5732 90.6253 39.5547 90.6253 40.7195ZM82.6751 40.7195C82.6751 41.5439 82.7798 42.2637 82.9892 42.8788C83.2116 43.4808 83.5519 43.9454 84.0099 44.2725C84.468 44.5997 85.0503 44.7633 85.757 44.7633C86.4637 44.7633 87.0461 44.5997 87.5041 44.2725C87.9622 43.9454 88.2959 43.4808 88.5053 42.8788C88.7277 42.2637 88.839 41.5439 88.839 40.7195C88.839 39.8819 88.7277 39.1687 88.5053 38.5798C88.2828 37.9909 87.9425 37.5394 87.4845 37.2253C87.0395 36.8981 86.4572 36.7345 85.7374 36.7345C84.6643 36.7345 83.8856 37.0879 83.4014 37.7946C82.9172 38.5013 82.6751 39.4762 82.6751 40.7195ZM97.0929 46.1963C95.7842 46.1963 94.7372 45.7448 93.952 44.8418C93.1668 43.9257 92.7742 42.5647 92.7742 40.7587C92.7742 38.9527 93.1668 37.5917 93.952 36.6756C94.7503 35.7465 95.8038 35.2819 97.1125 35.2819C97.6621 35.2819 98.1398 35.3539 98.5455 35.4978C98.9512 35.6287 99.3045 35.8119 99.6055 36.0475C99.9065 36.283 100.162 36.5448 100.371 36.8327H100.489C100.476 36.6626 100.45 36.4139 100.41 36.0867C100.384 35.7465 100.371 35.4782 100.371 35.2819V31.081H102.099V46H100.705L100.45 44.5866H100.371C100.162 44.8876 99.9065 45.1624 99.6055 45.4111C99.3045 45.6467 98.9447 45.8364 98.5259 45.9804C98.1202 46.1243 97.6425 46.1963 97.0929 46.1963ZM97.3677 44.7633C98.4801 44.7633 99.2587 44.4623 99.7037 43.8603C100.162 43.2452 100.391 42.3226 100.391 41.0924V40.7784C100.391 39.4697 100.175 38.4685 99.743 37.7749C99.3111 37.0682 98.5128 36.7149 97.3481 36.7149C96.4189 36.7149 95.7188 37.0879 95.2476 37.8338C94.7896 38.5667 94.5606 39.5547 94.5606 40.798C94.5606 42.0543 94.7896 43.0293 95.2476 43.7229C95.7188 44.4165 96.4254 44.7633 97.3677 44.7633ZM109.504 35.2819C110.407 35.2819 111.179 35.4782 111.82 35.8708C112.474 36.2634 112.972 36.8196 113.312 37.5394C113.665 38.2461 113.842 39.0771 113.842 40.0324V41.0728H106.638C106.664 42.2637 106.965 43.1732 107.541 43.8014C108.13 44.4165 108.948 44.724 109.995 44.724C110.662 44.724 111.251 44.6651 111.761 44.5474C112.285 44.4165 112.821 44.2333 113.371 43.9977V45.5092C112.834 45.7448 112.304 45.9149 111.781 46.0196C111.257 46.1374 110.636 46.1963 109.916 46.1963C108.921 46.1963 108.038 45.9935 107.266 45.5878C106.507 45.1821 105.911 44.5801 105.48 43.7818C105.061 42.9704 104.851 41.9823 104.851 40.8176C104.851 39.666 105.041 38.6779 105.421 37.8535C105.813 37.029 106.356 36.3943 107.05 35.9493C107.757 35.5044 108.575 35.2819 109.504 35.2819ZM109.484 36.6953C108.66 36.6953 108.005 36.9636 107.521 37.5001C107.05 38.0236 106.769 38.7564 106.677 39.6987H112.036C112.036 39.0967 111.944 38.5732 111.761 38.1283C111.578 37.6833 111.297 37.3365 110.917 37.0879C110.551 36.8261 110.073 36.6953 109.484 36.6953ZM121.428 35.2819C121.625 35.2819 121.834 35.295 122.056 35.3212C122.292 35.3342 122.495 35.3604 122.665 35.3997L122.449 36.9897C122.279 36.9505 122.089 36.9177 121.88 36.8916C121.683 36.8654 121.494 36.8523 121.31 36.8523C120.905 36.8523 120.519 36.9374 120.152 37.1075C119.786 37.2776 119.459 37.5197 119.171 37.8338C118.883 38.1348 118.654 38.5013 118.484 38.9331C118.327 39.365 118.248 39.8492 118.248 40.3858V46H116.521V35.4782H117.934L118.13 37.402H118.209C118.431 37.0094 118.7 36.656 119.014 36.3419C119.328 36.0148 119.688 35.7596 120.093 35.5763C120.499 35.38 120.944 35.2819 121.428 35.2819ZM128.231 35.3015C129.514 35.3015 130.462 35.5829 131.078 36.1456C131.693 36.7084 132 37.6048 132 38.835V46H130.744L130.41 44.5081H130.332C130.031 44.8876 129.717 45.2082 129.389 45.47C129.075 45.7186 128.709 45.9018 128.29 46.0196C127.884 46.1374 127.387 46.1963 126.798 46.1963C126.17 46.1963 125.601 46.0851 125.09 45.8626C124.593 45.6401 124.2 45.2999 123.913 44.8418C123.625 44.3707 123.481 43.7818 123.481 43.0751C123.481 42.0281 123.893 41.2233 124.717 40.6606C125.542 40.0848 126.811 39.7707 128.526 39.7183L130.312 39.6594V39.0313C130.312 38.1545 130.122 37.5459 129.743 37.2057C129.363 36.8654 128.827 36.6953 128.133 36.6953C127.583 36.6953 127.06 36.7803 126.563 36.9505C126.065 37.1075 125.601 37.2907 125.169 37.5001L124.639 36.2045C125.097 35.9559 125.64 35.7465 126.268 35.5763C126.896 35.3931 127.551 35.3015 128.231 35.3015ZM128.742 40.9158C127.433 40.9681 126.523 41.1775 126.013 41.5439C125.516 41.9104 125.267 42.4273 125.267 43.0947C125.267 43.6836 125.444 44.1155 125.797 44.3903C126.163 44.6651 126.628 44.8026 127.191 44.8026C128.081 44.8026 128.82 44.5604 129.409 44.0762C129.998 43.5789 130.292 42.8199 130.292 41.7991V40.8569L128.742 40.9158ZM138.764 44.7829C139.025 44.7829 139.294 44.7633 139.569 44.724C139.843 44.6717 140.066 44.6193 140.236 44.567V45.8822C140.053 45.9738 139.791 46.0458 139.451 46.0982C139.111 46.1636 138.783 46.1963 138.469 46.1963C137.92 46.1963 137.409 46.1047 136.938 45.9215C136.48 45.7252 136.107 45.3915 135.819 44.9203C135.531 44.4492 135.387 43.7883 135.387 42.9377V36.8131H133.895V35.9886L135.407 35.3015L136.094 33.0637H137.115V35.4782H140.157V36.8131H137.115V42.8984C137.115 43.5397 137.265 44.0173 137.566 44.3314C137.88 44.6324 138.279 44.7829 138.764 44.7829ZM146.406 35.2819C147.309 35.2819 148.081 35.4782 148.723 35.8708C149.377 36.2634 149.874 36.8196 150.215 37.5394C150.568 38.2461 150.745 39.0771 150.745 40.0324V41.0728H143.54C143.566 42.2637 143.867 43.1732 144.443 43.8014C145.032 44.4165 145.85 44.724 146.897 44.724C147.564 44.724 148.153 44.6651 148.664 44.5474C149.187 44.4165 149.724 44.2333 150.273 43.9977V45.5092C149.737 45.7448 149.207 45.9149 148.683 46.0196C148.16 46.1374 147.538 46.1963 146.819 46.1963C145.824 46.1963 144.941 45.9935 144.168 45.5878C143.409 45.1821 142.814 44.5801 142.382 43.7818C141.963 42.9704 141.754 41.9823 141.754 40.8176C141.754 39.666 141.944 38.6779 142.323 37.8535C142.716 37.029 143.259 36.3943 143.953 35.9493C144.659 35.5044 145.477 35.2819 146.406 35.2819ZM146.387 36.6953C145.562 36.6953 144.908 36.9636 144.424 37.5001C143.953 38.0236 143.671 38.7564 143.58 39.6987H148.939C148.939 39.0967 148.847 38.5732 148.664 38.1283C148.481 37.6833 148.199 37.3365 147.82 37.0879C147.453 36.8261 146.976 36.6953 146.387 36.6953Z" fill="white"/>
</svg>
