<svg width="1080" height="545" viewBox="0 0 1080 545" fill="none" xmlns="http://www.w3.org/2000/svg">
<rect width="1080" height="545" fill="#D9D9D9"/>
<path d="M308.168 255.001C304.258 255.001 300.927 254.468 298.173 253.402C295.448 252.336 293.36 250.796 291.909 248.782C290.458 246.739 289.732 244.281 289.732 241.408C289.732 238.476 290.458 236.003 291.909 233.989C293.36 231.976 295.448 230.436 298.173 229.37C300.927 228.303 304.258 227.77 308.168 227.77C308.227 227.77 308.36 227.77 308.567 227.77C308.804 227.77 309.026 227.77 309.234 227.77C309.471 227.77 309.604 227.77 309.633 227.77C313.513 227.77 316.815 228.303 319.54 229.37C322.264 230.436 324.337 231.99 325.759 234.034C327.18 236.048 327.891 238.506 327.891 241.408C327.891 244.251 327.18 246.694 325.759 248.738C324.367 250.781 322.323 252.336 319.628 253.402C316.963 254.468 313.705 255.001 309.856 255.001C309.796 255.001 309.633 255.001 309.367 255.001C309.13 255.001 308.878 255.001 308.612 255.001C308.375 255.001 308.227 255.001 308.168 255.001ZM308.745 250.514C308.804 250.514 308.893 250.514 309.012 250.514C309.13 250.514 309.204 250.514 309.234 250.514C312.106 250.485 314.505 250.129 316.43 249.448C318.385 248.767 319.851 247.76 320.828 246.428C321.835 245.065 322.338 243.377 322.338 241.363C322.338 239.35 321.835 237.676 320.828 236.344C319.821 235.011 318.355 234.004 316.43 233.323C314.505 232.642 312.136 232.301 309.323 232.301C309.293 232.301 309.204 232.301 309.056 232.301C308.908 232.301 308.804 232.301 308.745 232.301C305.813 232.301 303.34 232.642 301.327 233.323C299.342 233.975 297.847 234.982 296.84 236.344C295.863 237.676 295.374 239.364 295.374 241.408C295.374 243.451 295.892 245.154 296.929 246.516C297.995 247.849 299.52 248.856 301.504 249.537C303.488 250.189 305.902 250.514 308.745 250.514ZM306.169 258.244V224.661H311.499V258.244H306.169ZM343.906 257.311C341.478 257.311 339.316 256.793 337.42 255.756C335.525 254.69 334.03 253.239 332.934 251.403C331.838 249.567 331.29 247.479 331.29 245.139C331.29 242.77 331.838 240.682 332.934 238.876C334.03 237.04 335.525 235.603 337.42 234.567C339.316 233.53 341.478 233.012 343.906 233.012C346.364 233.012 348.541 233.53 350.436 234.567C352.361 235.603 353.857 237.025 354.923 238.831C356.018 240.638 356.566 242.741 356.566 245.139C356.566 247.479 356.018 249.567 354.923 251.403C353.857 253.239 352.361 254.69 350.436 255.756C348.541 256.793 346.364 257.311 343.906 257.311ZM343.906 252.558C345.268 252.558 346.483 252.262 347.549 251.669C348.615 251.077 349.444 250.218 350.036 249.093C350.658 247.968 350.969 246.65 350.969 245.139C350.969 243.599 350.658 242.282 350.036 241.186C349.444 240.06 348.615 239.202 347.549 238.609C346.483 238.017 345.283 237.721 343.95 237.721C342.588 237.721 341.374 238.017 340.308 238.609C339.271 239.202 338.442 240.06 337.82 241.186C337.198 242.282 336.887 243.599 336.887 245.139C336.887 246.65 337.198 247.968 337.82 249.093C338.442 250.218 339.271 251.077 340.308 251.669C341.374 252.262 342.573 252.558 343.906 252.558ZM366.115 257V236.655L367.403 237.987H357.764V233.279H379.975V237.987H370.379L371.668 236.655V257H366.115ZM393.534 257.311C391.105 257.311 388.943 256.793 387.048 255.756C385.153 254.69 383.657 253.239 382.561 251.403C381.466 249.567 380.918 247.479 380.918 245.139C380.918 242.77 381.466 240.682 382.561 238.876C383.657 237.04 385.153 235.603 387.048 234.567C388.943 233.53 391.105 233.012 393.534 233.012C395.992 233.012 398.168 233.53 400.064 234.567C401.989 235.603 403.484 237.025 404.55 238.831C405.646 240.638 406.194 242.741 406.194 245.139C406.194 247.479 405.646 249.567 404.55 251.403C403.484 253.239 401.989 254.69 400.064 255.756C398.168 256.793 395.992 257.311 393.534 257.311ZM393.534 252.558C394.896 252.558 396.11 252.262 397.176 251.669C398.242 251.077 399.072 250.218 399.664 249.093C400.286 247.968 400.597 246.65 400.597 245.139C400.597 243.599 400.286 242.282 399.664 241.186C399.072 240.06 398.242 239.202 397.176 238.609C396.11 238.017 394.911 237.721 393.578 237.721C392.216 237.721 391.002 238.017 389.935 238.609C388.899 239.202 388.07 240.06 387.448 241.186C386.826 242.282 386.515 243.599 386.515 245.139C386.515 246.65 386.826 247.968 387.448 249.093C388.07 250.218 388.899 251.077 389.935 251.669C391.002 252.262 392.201 252.558 393.534 252.558ZM434.751 257.311C432.263 257.311 430.042 256.793 428.087 255.756C426.162 254.69 424.652 253.239 423.556 251.403C422.461 249.567 421.913 247.479 421.913 245.139C421.913 242.77 422.461 240.682 423.556 238.876C424.652 237.04 426.162 235.603 428.087 234.567C430.042 233.53 432.263 233.012 434.751 233.012C437.061 233.012 439.089 233.486 440.836 234.434C442.613 235.352 443.961 236.714 444.879 238.52L440.614 241.008C439.904 239.883 439.03 239.054 437.993 238.52C436.987 237.987 435.891 237.721 434.706 237.721C433.344 237.721 432.115 238.017 431.019 238.609C429.923 239.202 429.065 240.06 428.443 241.186C427.821 242.282 427.51 243.599 427.51 245.139C427.51 246.679 427.821 248.012 428.443 249.137C429.065 250.233 429.923 251.077 431.019 251.669C432.115 252.262 433.344 252.558 434.706 252.558C435.891 252.558 436.987 252.291 437.993 251.758C439.03 251.225 439.904 250.396 440.614 249.271L444.879 251.758C443.961 253.535 442.613 254.912 440.836 255.889C439.089 256.837 437.061 257.311 434.751 257.311ZM466.781 257L458.208 245.628L462.739 242.829L473.311 257H466.781ZM449.768 257V233.279H455.32V257H449.768ZM453.677 247.494V242.874H461.717V247.494H453.677ZM463.272 245.806L458.075 245.184L466.781 233.279H472.734L463.272 245.806ZM487.019 257.311C484.591 257.311 482.429 256.793 480.534 255.756C478.638 254.69 477.143 253.239 476.047 251.403C474.951 249.567 474.403 247.479 474.403 245.139C474.403 242.77 474.951 240.682 476.047 238.876C477.143 237.04 478.638 235.603 480.534 234.567C482.429 233.53 484.591 233.012 487.019 233.012C489.477 233.012 491.654 233.53 493.549 234.567C495.474 235.603 496.97 237.025 498.036 238.831C499.132 240.638 499.68 242.741 499.68 245.139C499.68 247.479 499.132 249.567 498.036 251.403C496.97 253.239 495.474 254.69 493.549 255.756C491.654 256.793 489.477 257.311 487.019 257.311ZM487.019 252.558C488.382 252.558 489.596 252.262 490.662 251.669C491.728 251.077 492.557 250.218 493.15 249.093C493.771 247.968 494.082 246.65 494.082 245.139C494.082 243.599 493.771 242.282 493.15 241.186C492.557 240.06 491.728 239.202 490.662 238.609C489.596 238.017 488.396 237.721 487.064 237.721C485.701 237.721 484.487 238.017 483.421 238.609C482.385 239.202 481.555 240.06 480.933 241.186C480.312 242.282 480.001 243.599 480.001 245.139C480.001 246.65 480.312 247.968 480.933 249.093C481.555 250.218 482.385 251.077 483.421 251.669C484.487 252.262 485.687 252.558 487.019 252.558ZM518.314 257.311C516.389 257.311 514.627 256.867 513.028 255.978C511.458 255.09 510.199 253.757 509.252 251.98C508.334 250.174 507.875 247.894 507.875 245.139C507.875 242.356 508.319 240.075 509.207 238.298C510.125 236.521 511.369 235.204 512.939 234.345C514.508 233.456 516.3 233.012 518.314 233.012C520.653 233.012 522.712 233.516 524.488 234.523C526.295 235.529 527.716 236.936 528.753 238.743C529.819 240.549 530.352 242.681 530.352 245.139C530.352 247.597 529.819 249.744 528.753 251.581C527.716 253.387 526.295 254.794 524.488 255.801C522.712 256.808 520.653 257.311 518.314 257.311ZM505.165 265.618V233.279H510.451V238.876L510.273 245.184L510.718 251.492V265.618H505.165ZM517.692 252.558C519.025 252.558 520.209 252.262 521.246 251.669C522.312 251.077 523.156 250.218 523.778 249.093C524.4 247.968 524.711 246.65 524.711 245.139C524.711 243.599 524.4 242.282 523.778 241.186C523.156 240.06 522.312 239.202 521.246 238.609C520.209 238.017 519.025 237.721 517.692 237.721C516.359 237.721 515.16 238.017 514.094 238.609C513.028 239.202 512.184 240.06 511.562 241.186C510.94 242.282 510.629 243.599 510.629 245.139C510.629 246.65 510.94 247.968 511.562 249.093C512.184 250.218 513.028 251.077 514.094 251.669C515.16 252.262 516.359 252.558 517.692 252.558ZM546.451 257.311C544.023 257.311 541.861 256.793 539.965 255.756C538.07 254.69 536.574 253.239 535.479 251.403C534.383 249.567 533.835 247.479 533.835 245.139C533.835 242.77 534.383 240.682 535.479 238.876C536.574 237.04 538.07 235.603 539.965 234.567C541.861 233.53 544.023 233.012 546.451 233.012C548.909 233.012 551.086 233.53 552.981 234.567C554.906 235.603 556.401 237.025 557.468 238.831C558.563 240.638 559.111 242.741 559.111 245.139C559.111 247.479 558.563 249.567 557.468 251.403C556.401 253.239 554.906 254.69 552.981 255.756C551.086 256.793 548.909 257.311 546.451 257.311ZM546.451 252.558C547.813 252.558 549.027 252.262 550.094 251.669C551.16 251.077 551.989 250.218 552.581 249.093C553.203 247.968 553.514 246.65 553.514 245.139C553.514 243.599 553.203 242.282 552.581 241.186C551.989 240.06 551.16 239.202 550.094 238.609C549.027 238.017 547.828 237.721 546.495 237.721C545.133 237.721 543.919 238.017 542.853 238.609C541.816 239.202 540.987 240.06 540.365 241.186C539.743 242.282 539.432 243.599 539.432 245.139C539.432 246.65 539.743 247.968 540.365 249.093C540.987 250.218 541.816 251.077 542.853 251.669C543.919 252.262 545.118 252.558 546.451 252.558ZM576.873 257V233.279H599.617V257H594.109V236.699L595.397 237.987H581.138L582.426 236.699V257H576.873ZM617.682 257.311C615.254 257.311 613.092 256.793 611.197 255.756C609.301 254.69 607.806 253.239 606.71 251.403C605.614 249.567 605.066 247.479 605.066 245.139C605.066 242.77 605.614 240.682 606.71 238.876C607.806 237.04 609.301 235.603 611.197 234.567C613.092 233.53 615.254 233.012 617.682 233.012C620.14 233.012 622.317 233.53 624.212 234.567C626.137 235.603 627.633 237.025 628.699 238.831C629.795 240.638 630.342 242.741 630.342 245.139C630.342 247.479 629.795 249.567 628.699 251.403C627.633 253.239 626.137 254.69 624.212 255.756C622.317 256.793 620.14 257.311 617.682 257.311ZM617.682 252.558C619.044 252.558 620.259 252.262 621.325 251.669C622.391 251.077 623.22 250.218 623.812 249.093C624.434 247.968 624.745 246.65 624.745 245.139C624.745 243.599 624.434 242.282 623.812 241.186C623.22 240.06 622.391 239.202 621.325 238.609C620.259 238.017 619.059 237.721 617.727 237.721C616.364 237.721 615.15 238.017 614.084 238.609C613.048 239.202 612.218 240.06 611.596 241.186C610.975 242.282 610.664 243.599 610.664 245.139C610.664 246.65 610.975 247.968 611.596 249.093C612.218 250.218 613.048 251.077 614.084 251.669C615.15 252.262 616.35 252.558 617.682 252.558ZM650.106 257V248.915L650.906 249.848H643.798C640.541 249.848 637.979 249.167 636.113 247.805C634.277 246.413 633.359 244.414 633.359 241.808C633.359 239.024 634.336 236.906 636.291 235.455C638.275 234.004 640.911 233.279 644.198 233.279H655.081V257H650.106ZM633.048 257L639.445 247.938H645.131L639.001 257H633.048ZM650.106 247.138V236.477L650.906 237.943H644.376C642.658 237.943 641.325 238.269 640.378 238.92C639.46 239.542 639.001 240.564 639.001 241.985C639.001 244.651 640.733 245.983 644.198 245.983H650.906L650.106 247.138ZM662.55 257V233.279H674.145C677.017 233.279 679.268 233.812 680.897 234.878C682.555 235.944 683.384 237.454 683.384 239.409C683.384 241.334 682.614 242.844 681.074 243.94C679.534 245.006 677.491 245.539 674.944 245.539L675.611 244.162C678.483 244.162 680.615 244.695 682.007 245.761C683.429 246.798 684.14 248.323 684.14 250.337C684.14 252.439 683.355 254.083 681.785 255.268C680.216 256.423 677.832 257 674.633 257H662.55ZM667.837 252.958H674.189C675.699 252.958 676.84 252.721 677.61 252.247C678.379 251.743 678.764 250.988 678.764 249.981C678.764 248.915 678.409 248.13 677.698 247.627C676.988 247.124 675.877 246.872 674.367 246.872H667.837V252.958ZM667.837 243.185H673.656C675.077 243.185 676.144 242.933 676.854 242.43C677.595 241.897 677.965 241.156 677.965 240.209C677.965 239.231 677.595 238.506 676.854 238.032C676.144 237.558 675.077 237.321 673.656 237.321H667.837V243.185ZM690.054 257V233.279H695.607V248.915L708.711 233.279H713.775V257H708.222V241.363L695.162 257H690.054ZM726.176 257V236.655L727.464 237.987H717.824V233.279H740.035V237.987H730.44L731.728 236.655V257H726.176ZM753.816 257.311C751.329 257.311 749.108 256.793 747.153 255.756C745.228 254.69 743.718 253.239 742.622 251.403C741.526 249.567 740.978 247.479 740.978 245.139C740.978 242.77 741.526 240.682 742.622 238.876C743.718 237.04 745.228 235.603 747.153 234.567C749.108 233.53 751.329 233.012 753.816 233.012C756.126 233.012 758.155 233.486 759.902 234.434C761.679 235.352 763.027 236.714 763.945 238.52L759.68 241.008C758.969 239.883 758.096 239.054 757.059 238.52C756.052 237.987 754.957 237.721 753.772 237.721C752.41 237.721 751.181 238.017 750.085 238.609C748.989 239.202 748.13 240.06 747.508 241.186C746.887 242.282 746.576 243.599 746.576 245.139C746.576 246.679 746.887 248.012 747.508 249.137C748.13 250.233 748.989 251.077 750.085 251.669C751.181 252.262 752.41 252.558 753.772 252.558C754.957 252.558 756.052 252.291 757.059 251.758C758.096 251.225 758.969 250.396 759.68 249.271L763.945 251.758C763.027 253.535 761.679 254.912 759.902 255.889C758.155 256.837 756.126 257.311 753.816 257.311ZM783.242 257V248.915L784.041 249.848H776.934C773.676 249.848 771.115 249.167 769.249 247.805C767.413 246.413 766.495 244.414 766.495 241.808C766.495 239.024 767.472 236.906 769.427 235.455C771.411 234.004 774.046 233.279 777.334 233.279H788.217V257H783.242ZM766.184 257L772.58 247.938H778.266L772.136 257H766.184ZM783.242 247.138V236.477L784.041 237.943H777.511C775.794 237.943 774.461 238.269 773.513 238.92C772.595 239.542 772.136 240.564 772.136 241.985C772.136 244.651 773.869 245.983 777.334 245.983H784.041L783.242 247.138Z" fill="black"/>
<path d="M359.307 323V301.764H361.794L371.32 317.812H369.985L379.39 301.764H381.877L381.908 323H378.995L378.965 306.345H379.663L371.29 320.421H369.894L361.461 306.345H362.219V323H359.307ZM403.929 323V306.921H406.841V323H403.929ZM395.283 312.382C397.326 312.402 398.873 312.867 399.925 313.778C400.996 314.688 401.532 315.972 401.532 317.63C401.532 319.37 400.946 320.715 399.773 321.665C398.62 322.596 396.962 323.051 394.798 323.03L388.032 323V306.921H390.945V312.352L395.283 312.382ZM394.585 320.816C395.88 320.836 396.871 320.573 397.558 320.027C398.246 319.481 398.59 318.672 398.59 317.6C398.59 316.548 398.246 315.78 397.558 315.294C396.891 314.809 395.9 314.556 394.585 314.536L390.945 314.475V320.785L394.585 320.816ZM429.175 323.182C427.84 323.182 426.617 322.879 425.505 322.272C424.412 321.645 423.533 320.725 422.865 319.511C422.218 318.298 421.894 316.781 421.894 314.961C421.894 313.14 422.208 311.624 422.835 310.41C423.482 309.197 424.352 308.287 425.444 307.68C426.556 307.073 427.8 306.77 429.175 306.77C430.753 306.77 432.148 307.114 433.362 307.801C434.575 308.489 435.536 309.45 436.244 310.683C436.952 311.897 437.306 313.323 437.306 314.961C437.306 316.599 436.952 318.035 436.244 319.269C435.536 320.502 434.575 321.463 433.362 322.151C432.148 322.838 430.753 323.182 429.175 323.182ZM420.651 328.885V306.921H423.442V311.26L423.26 314.991L423.563 318.722V328.885H420.651ZM428.933 320.634C429.964 320.634 430.884 320.401 431.693 319.936C432.522 319.471 433.17 318.814 433.635 317.964C434.12 317.094 434.363 316.093 434.363 314.961C434.363 313.808 434.12 312.817 433.635 311.988C433.17 311.138 432.522 310.481 431.693 310.016C430.884 309.551 429.964 309.318 428.933 309.318C427.921 309.318 427.001 309.551 426.172 310.016C425.363 310.481 424.716 311.138 424.23 311.988C423.765 312.817 423.533 313.808 423.533 314.961C423.533 316.093 423.765 317.094 424.23 317.964C424.716 318.814 425.363 319.471 426.172 319.936C427.001 320.401 427.921 320.634 428.933 320.634ZM451.248 323V319.602L451.097 318.965V313.171C451.097 311.937 450.733 310.987 450.004 310.319C449.297 309.632 448.225 309.288 446.789 309.288C445.838 309.288 444.908 309.45 443.998 309.773C443.088 310.076 442.319 310.491 441.692 311.017L440.479 308.833C441.308 308.165 442.299 307.66 443.452 307.316C444.625 306.952 445.848 306.77 447.122 306.77C449.327 306.77 451.026 307.306 452.219 308.378C453.412 309.45 454.009 311.088 454.009 313.292V323H451.248ZM445.97 323.182C444.776 323.182 443.725 322.98 442.815 322.575C441.925 322.171 441.237 321.615 440.752 320.907C440.266 320.179 440.024 319.36 440.024 318.449C440.024 317.58 440.226 316.791 440.63 316.083C441.055 315.375 441.733 314.809 442.663 314.384C443.613 313.96 444.888 313.747 446.485 313.747H451.582V315.84H446.607C445.151 315.84 444.17 316.083 443.664 316.569C443.158 317.054 442.906 317.64 442.906 318.328C442.906 319.117 443.219 319.754 443.846 320.239C444.473 320.705 445.343 320.937 446.455 320.937C447.547 320.937 448.498 320.694 449.307 320.209C450.136 319.724 450.733 319.016 451.097 318.085L451.673 320.088C451.289 321.038 450.611 321.797 449.64 322.363C448.67 322.909 447.446 323.182 445.97 323.182ZM466.686 323.243C465.351 323.243 464.168 323.03 463.136 322.606C462.125 322.181 461.255 321.554 460.527 320.725C459.799 319.875 459.243 318.814 458.859 317.539C458.495 316.245 458.313 314.728 458.313 312.989C458.313 311.614 458.434 310.38 458.677 309.288C458.919 308.196 459.263 307.225 459.708 306.375C460.173 305.526 460.74 304.788 461.407 304.161C462.095 303.534 462.863 303.018 463.713 302.614C464.582 302.189 465.533 301.865 466.564 301.643L473.906 300.005L474.331 302.705L467.565 304.161C467.161 304.242 466.676 304.363 466.109 304.525C465.543 304.687 464.967 304.939 464.38 305.283C463.794 305.607 463.248 306.062 462.742 306.648C462.236 307.235 461.832 308.003 461.528 308.954C461.225 309.884 461.073 311.037 461.073 312.412C461.073 312.797 461.083 313.09 461.104 313.292C461.124 313.494 461.144 313.697 461.164 313.899C461.205 314.101 461.235 314.405 461.255 314.809L460.042 313.565C460.366 312.453 460.881 311.482 461.589 310.653C462.297 309.824 463.146 309.187 464.137 308.742C465.149 308.276 466.251 308.044 467.444 308.044C468.941 308.044 470.265 308.367 471.418 309.015C472.591 309.662 473.512 310.552 474.179 311.684C474.846 312.817 475.18 314.111 475.18 315.567C475.18 317.044 474.826 318.369 474.118 319.542C473.431 320.694 472.45 321.605 471.176 322.272C469.901 322.919 468.405 323.243 466.686 323.243ZM466.959 320.816C467.99 320.816 468.9 320.593 469.689 320.148C470.478 319.683 471.095 319.066 471.54 318.298C471.985 317.509 472.207 316.629 472.207 315.658C472.207 314.688 471.985 313.828 471.54 313.08C471.095 312.332 470.478 311.745 469.689 311.32C468.9 310.875 467.97 310.653 466.898 310.653C465.887 310.653 464.977 310.865 464.168 311.29C463.359 311.694 462.732 312.271 462.287 313.019C461.842 313.747 461.619 314.597 461.619 315.567C461.619 316.538 461.842 317.428 462.287 318.237C462.752 319.026 463.379 319.653 464.168 320.118C464.977 320.583 465.907 320.816 466.959 320.816ZM486.226 323.182C484.608 323.182 483.172 322.828 481.918 322.12C480.664 321.412 479.673 320.442 478.945 319.208C478.217 317.954 477.853 316.538 477.853 314.961C477.853 313.363 478.217 311.947 478.945 310.714C479.673 309.48 480.664 308.519 481.918 307.832C483.172 307.124 484.608 306.77 486.226 306.77C487.824 306.77 489.25 307.124 490.504 307.832C491.778 308.519 492.769 309.48 493.477 310.714C494.205 311.927 494.569 313.343 494.569 314.961C494.569 316.558 494.205 317.974 493.477 319.208C492.769 320.442 491.778 321.412 490.504 322.12C489.25 322.828 487.824 323.182 486.226 323.182ZM486.226 320.634C487.257 320.634 488.178 320.401 488.987 319.936C489.816 319.471 490.463 318.814 490.928 317.964C491.393 317.094 491.626 316.093 491.626 314.961C491.626 313.808 491.393 312.817 490.928 311.988C490.463 311.138 489.816 310.481 488.987 310.016C488.178 309.551 487.257 309.318 486.226 309.318C485.195 309.318 484.274 309.551 483.465 310.016C482.656 310.481 482.009 311.138 481.524 311.988C481.038 312.817 480.796 313.808 480.796 314.961C480.796 316.093 481.038 317.094 481.524 317.964C482.009 318.814 482.656 319.471 483.465 319.936C484.274 320.401 485.195 320.634 486.226 320.634ZM501.367 323V308.711L502.095 309.47H495.482V306.921H510.165V309.47H503.582L504.279 308.711V323H501.367ZM523.002 323V319.602L522.851 318.965V313.171C522.851 311.937 522.486 310.987 521.758 310.319C521.051 309.632 519.979 309.288 518.543 309.288C517.592 309.288 516.662 309.45 515.752 309.773C514.842 310.076 514.073 310.491 513.446 311.017L512.233 308.833C513.062 308.165 514.053 307.66 515.206 307.316C516.379 306.952 517.602 306.77 518.876 306.77C521.081 306.77 522.78 307.306 523.973 308.378C525.166 309.45 525.763 311.088 525.763 313.292V323H523.002ZM517.724 323.182C516.53 323.182 515.479 322.98 514.569 322.575C513.679 322.171 512.991 321.615 512.506 320.907C512.02 320.179 511.778 319.36 511.778 318.449C511.778 317.58 511.98 316.791 512.384 316.083C512.809 315.375 513.487 314.809 514.417 314.384C515.367 313.96 516.642 313.747 518.239 313.747H523.336V315.84H518.361C516.904 315.84 515.924 316.083 515.418 316.569C514.912 317.054 514.66 317.64 514.66 318.328C514.66 319.117 514.973 319.754 515.6 320.239C516.227 320.705 517.097 320.937 518.209 320.937C519.301 320.937 520.252 320.694 521.061 320.209C521.89 319.724 522.486 319.016 522.851 318.085L523.427 320.088C523.043 321.038 522.365 321.797 521.394 322.363C520.424 322.909 519.2 323.182 517.724 323.182ZM538.167 323.182C536.448 323.182 534.931 322.828 533.616 322.12C532.322 321.412 531.31 320.442 530.582 319.208C529.875 317.974 529.521 316.558 529.521 314.961C529.521 313.363 529.864 311.947 530.552 310.714C531.26 309.48 532.221 308.519 533.434 307.832C534.668 307.124 536.053 306.77 537.59 306.77C539.148 306.77 540.523 307.114 541.716 307.801C542.909 308.489 543.84 309.46 544.507 310.714C545.195 311.947 545.538 313.393 545.538 315.052C545.538 315.173 545.528 315.315 545.508 315.476C545.508 315.638 545.498 315.79 545.478 315.931H531.796V313.838H543.961L542.778 314.566C542.798 313.535 542.586 312.615 542.141 311.806C541.696 310.997 541.079 310.37 540.29 309.925C539.522 309.46 538.622 309.227 537.59 309.227C536.579 309.227 535.679 309.46 534.89 309.925C534.101 310.37 533.485 311.007 533.04 311.836C532.595 312.645 532.372 313.575 532.372 314.627V315.112C532.372 316.184 532.615 317.145 533.1 317.994C533.606 318.824 534.304 319.471 535.194 319.936C536.083 320.401 537.105 320.634 538.258 320.634C539.208 320.634 540.068 320.472 540.836 320.148C541.625 319.825 542.313 319.339 542.899 318.692L544.507 320.573C543.779 321.422 542.869 322.07 541.777 322.515C540.705 322.96 539.501 323.182 538.167 323.182ZM550.057 323V306.921H553.06L559.977 318.814H558.763L565.862 306.921H568.592V323H565.953V310.198L566.439 310.471L559.946 321.18H558.672L552.15 310.258L552.726 310.137V323H550.057ZM582.408 323V306.921H585.32V313.747H594.482V306.921H597.394V323H594.482V316.265H585.32V323H582.408ZM612.917 323V319.602L612.765 318.965V313.171C612.765 311.937 612.401 310.987 611.673 310.319C610.965 309.632 609.893 309.288 608.457 309.288C607.507 309.288 606.576 309.45 605.666 309.773C604.756 310.076 603.988 310.491 603.361 311.017L602.147 308.833C602.976 308.165 603.967 307.66 605.12 307.316C606.293 306.952 607.517 306.77 608.791 306.77C610.995 306.77 612.694 307.306 613.888 308.378C615.081 309.45 615.677 311.088 615.677 313.292V323H612.917ZM607.638 323.182C606.445 323.182 605.393 322.98 604.483 322.575C603.593 322.171 602.906 321.615 602.42 320.907C601.935 320.179 601.692 319.36 601.692 318.449C601.692 317.58 601.894 316.791 602.299 316.083C602.724 315.375 603.401 314.809 604.331 314.384C605.282 313.96 606.556 313.747 608.154 313.747H613.251V315.84H608.275C606.819 315.84 605.838 316.083 605.333 316.569C604.827 317.054 604.574 317.64 604.574 318.328C604.574 319.117 604.888 319.754 605.515 320.239C606.142 320.705 607.011 320.937 608.124 320.937C609.216 320.937 610.166 320.694 610.975 320.209C611.804 319.724 612.401 319.016 612.765 318.085L613.342 320.088C612.957 321.038 612.28 321.797 611.309 322.363C610.338 322.909 609.115 323.182 607.638 323.182ZM631.904 321.635V309.47H624.926L624.775 312.564C624.734 313.575 624.663 314.556 624.562 315.507C624.481 316.437 624.34 317.297 624.137 318.085C623.955 318.874 623.682 319.521 623.318 320.027C622.954 320.533 622.469 320.846 621.862 320.967L618.98 320.452C619.607 320.472 620.113 320.27 620.497 319.845C620.881 319.4 621.175 318.793 621.377 318.025C621.599 317.256 621.761 316.387 621.862 315.416C621.963 314.425 622.044 313.403 622.105 312.352L622.348 306.921H634.816V321.635H631.904ZM618.343 326.731V320.452H637.273V326.731H634.543V323H621.104V326.731H618.343ZM651.702 315.931V313.778H660.712V315.931H651.702ZM653.856 306.739C655.514 306.739 657.001 307.093 658.316 307.801C659.63 308.509 660.662 309.48 661.41 310.714C662.158 311.947 662.532 313.363 662.532 314.961C662.532 316.538 662.158 317.954 661.41 319.208C660.662 320.462 659.63 321.443 658.316 322.151C657.001 322.858 655.514 323.212 653.856 323.212C652.481 323.212 651.207 322.99 650.034 322.545C648.881 322.1 647.91 321.453 647.121 320.603L648.82 318.905C649.487 319.552 650.226 320.037 651.035 320.361C651.864 320.664 652.764 320.816 653.735 320.816C654.908 320.816 655.949 320.573 656.859 320.088C657.769 319.582 658.487 318.884 659.013 317.994C659.559 317.105 659.832 316.093 659.832 314.961C659.832 313.828 659.559 312.827 659.013 311.957C658.487 311.067 657.769 310.37 656.859 309.864C655.949 309.358 654.908 309.106 653.735 309.106C652.764 309.106 651.864 309.267 651.035 309.591C650.226 309.915 649.487 310.4 648.82 311.047L647.121 309.379C647.91 308.509 648.881 307.852 650.034 307.407C651.207 306.962 652.481 306.739 653.856 306.739ZM669.257 323V308.711L669.985 309.47H663.372V306.921H678.055V309.47H671.472L672.169 308.711V323H669.257ZM681.033 323V306.921H683.945V318.631L693.805 306.921H696.444V323H693.532V311.29L683.702 323H681.033ZM702.097 323V306.921H705.1L712.017 318.814H710.803L717.902 306.921H720.633V323H717.993V310.198L718.479 310.471L711.987 321.18H710.712L704.19 310.258L704.766 310.137V323H702.097Z" fill="black"/>
</svg>
